<svg viewBox="0 0 18 18" fill="currentColor" xmlns="http://www.w3.org/2000/svg">
	<path d="M5.33492 1.37491C5.44717 1.04229 5.75909 0.818359 6.11014 0.818359H11.25L5.91513 16.6255C5.80287 16.9581 5.49095 17.182 5.13991 17.182H1.13968C0.579936 17.182 0.185466 16.6325 0.364461 16.1022L5.33492 1.37491Z" />
	<path d="M13.5517 11.4546H5.45126C5.1109 11.4546 4.94657 11.8715 5.19539 12.1037L10.4005 16.9618C10.552 17.1032 10.7515 17.1819 10.9587 17.1819H15.5453L13.5517 11.4546Z" />
	<path d="M6.11014 0.818359C5.75909 0.818359 5.44717 1.04229 5.33492 1.37491L0.364461 16.1022C0.185466 16.6325 0.579936 17.182 1.13968 17.182H5.13991C5.49095 17.182 5.80287 16.9581 5.91513 16.6255L6.90327 13.6976L10.4005 16.9617C10.552 17.1032 10.7515 17.1818 10.9588 17.1818H15.5454L13.5517 11.4545H7.66032L11.25 0.818359H6.11014Z" />
	<path d="M12.665 1.37478C12.5528 1.04217 12.2409 0.818237 11.8898 0.818237H6.13629H6.16254C6.51358 0.818237 6.82551 1.04217 6.93776 1.37478L11.9082 16.1021C12.0872 16.6324 11.6927 17.1819 11.133 17.1819H11.0454H16.8603C17.42 17.1819 17.8145 16.6324 17.6355 16.1021L12.665 1.37478Z" />
</svg>